<svg xmlns="http://www.w3.org/2000/svg" viewBox="0 0 27.26 25.52"><defs><style>.cls-1{fill:none;}.cls-2{fill:#253273;}</style></defs><title>icon</title><g id="Capa_2" data-name="Capa 2"><path class="cls-1" d="M26,19.27a2.71,2.71,0,0,0-1.65-2.49v5A2.7,2.7,0,0,0,26,19.27Z"/><path class="cls-1" d="M20.54,19.27a2.7,2.7,0,0,0,1.65,2.49v-5A2.7,2.7,0,0,0,20.54,19.27Z"/><path class="cls-2" d="M24.3,15.47V0H22.19V15.47a3.92,3.92,0,0,0,0,7.6v2.45H24.3V23.07a3.92,3.92,0,0,0,0-7.6Zm0,6.29a2.63,2.63,0,0,1-1.05.22,2.71,2.71,0,1,1,0-5.41,2.63,2.63,0,0,1,1.05.21,2.7,2.7,0,0,1,0,5Z"/><path class="cls-2" d="M5.07,15.47V0H3V15.47a3.92,3.92,0,0,0,0,7.6v2.45H5.07V23.07a3.92,3.92,0,0,0,0-7.6Zm0,6.29A2.68,2.68,0,0,1,4,22a2.63,2.63,0,0,1-1-.22,2.7,2.7,0,0,1,0-5,2.63,2.63,0,0,1,1-.21,2.67,2.67,0,0,1,1.06.21,2.7,2.7,0,0,1,0,5Z"/><path class="cls-2" d="M14.68,10.05V25.52h-2.1V10.05a4,4,0,0,1-3-3.8,4,4,0,0,1,3-3.8V0h2.1V2.45a3.92,3.92,0,0,1,0,7.6Zm0-6.29a2.63,2.63,0,0,0-1-.21,2.59,2.59,0,0,0-1.05.21,2.7,2.7,0,0,0,0,5A2.6,2.6,0,0,0,13.63,9a2.63,2.63,0,0,0,1-.22,2.7,2.7,0,0,0,0-5Z"/></g></svg>