<svg xmlns="http://www.w3.org/2000/svg" viewBox="0 0 18.19 29.82"><defs><style>.cls-1{fill:#35417e;}</style></defs><title>icon</title><g id="Capa_2" data-name="Capa 2"><path class="cls-1" d="M16.05,0H2.14A2.14,2.14,0,0,0,0,2.14V27.68a2.14,2.14,0,0,0,2.14,2.14H16.05a2.14,2.14,0,0,0,2.14-2.14V2.14A2.14,2.14,0,0,0,16.05,0ZM4,2.55a1.27,1.27,0,0,1,.36-.88H16.05a.47.47,0,0,1,.46.47V6.38H4Zm.35,4.71H16.51v6.32H1.67V7.26H4.35ZM2.14,1.67H3.32a2.18,2.18,0,0,0-.2.88V6.38H1.67V2.14A.47.47,0,0,1,2.14,1.67ZM16.05,28.15H2.14a.47.47,0,0,1-.47-.47V14.46H16.51V27.68A.47.47,0,0,1,16.05,28.15Z"/><path class="cls-1" d="M15.8,7.78H3.92V12.9H15.8Zm-1.1,4H5V8.87H14.7Z"/><rect class="cls-1" x="4.05" y="16.65" width="1.08" height="1.08"/><rect class="cls-1" x="7.16" y="16.65" width="1.08" height="1.08"/><rect class="cls-1" x="10.27" y="16.65" width="1.08" height="1.08"/><rect class="cls-1" x="13.37" y="16.65" width="1.08" height="1.08"/><rect class="cls-1" x="4.05" y="19.77" width="1.08" height="1.08"/><rect class="cls-1" x="7.16" y="19.77" width="1.08" height="1.08"/><rect class="cls-1" x="10.27" y="19.77" width="1.08" height="1.08"/><rect class="cls-1" x="13.37" y="19.77" width="1.08" height="1.08"/><rect class="cls-1" x="4.05" y="22.9" width="1.08" height="1.08"/><rect class="cls-1" x="7.16" y="22.9" width="1.08" height="1.08"/><rect class="cls-1" x="10.27" y="22.9" width="1.08" height="1.08"/><rect class="cls-1" x="13.37" y="22.9" width="1.08" height="1.08"/><rect class="cls-1" x="4.05" y="26.02" width="1.08" height="1.08"/><rect class="cls-1" x="7.16" y="26.02" width="1.08" height="1.08"/><rect class="cls-1" x="10.27" y="26.02" width="1.08" height="1.08"/><rect class="cls-1" x="13.37" y="26.02" width="1.08" height="1.08"/></g></svg>