<svg xmlns="http://www.w3.org/2000/svg" viewBox="0 0 22.79 23.23"><defs><style>.cls-1{fill:#fff;}</style></defs><title>icon</title><g id="Capa_2" data-name="Capa 2"><path class="cls-1" d="M11.39,23.23a11.13,11.13,0,0,1-7-2.43s-.24-.38.27-1.05.9-.44.9-.44a9.24,9.24,0,0,0,5.8,2,9.63,9.63,0,0,0,9.51-9.72,9.86,9.86,0,0,0-2.46-6.52,1,1,0,0,1,.43-1,1,1,0,0,1,1-.27,11.71,11.71,0,0,1,2.94,7.78A11.52,11.52,0,0,1,11.39,23.23Z"/><path class="cls-1" d="M2.59,19A11.78,11.78,0,0,1,0,11.61,11.52,11.52,0,0,1,11.39,0a11.32,11.32,0,0,1,7.09,2.51s.18.41-.33,1-.87.5-.87.5A9.24,9.24,0,0,0,11.39,1.9a9.61,9.61,0,0,0-9.5,9.71A9.86,9.86,0,0,0,4.06,17.8a.88.88,0,0,1-.43.95C2.91,19.26,2.59,19,2.59,19Z"/><ellipse class="cls-1" cx="12.29" cy="6.06" rx="1.75" ry="1.62"/><path class="cls-1" d="M12.06,18.62a2,2,0,0,1-2.47-.77c-.67-1-.7-2.13.13-4.34a4.5,4.5,0,0,0,.39-2.15c-.4-1-2.11-.52-2.34-.55a2.49,2.49,0,0,1,4.62-.5c.57.91.14,2-.48,3.68-.77,2-.66,2.44-.48,2.63.47.52,1.79.33,2.44.08A4.15,4.15,0,0,1,12.06,18.62Z"/></g></svg>