<svg xmlns="http://www.w3.org/2000/svg" viewBox="0 0 26.05 25.01"><defs><style>.cls-1{fill:#35417e;}</style></defs><title>icon</title><g id="Capa_2" data-name="Capa 2"><path class="cls-1" d="M24.57,1.44a5.17,5.17,0,0,0-7.16,0L10.67,8.17a5,5,0,0,0-.92,1.39,4.93,4.93,0,0,0-1,.58L1.63,16.47A4.89,4.89,0,0,0,4.6,25h.29a4.89,4.89,0,0,0,3.24-1.24l7.12-6.33a4.51,4.51,0,0,0,.73-1,5,5,0,0,0,1.85-1.15l6.74-6.74A5,5,0,0,0,26.05,5,5,5,0,0,0,24.57,1.44ZM15.2,14.8a3.19,3.19,0,0,1-3.92-4.29,3.51,3.51,0,0,1,.72-.13A3.43,3.43,0,0,1,15.41,14,3.71,3.71,0,0,1,15.2,14.8ZM7.14,22.67a3.33,3.33,0,0,1-2.46.86,3.42,3.42,0,0,1-2.07-6L9.2,11.72a4.91,4.91,0,0,0,4.63,5ZM23.27,7.3l-6.44,6.44A4.71,4.71,0,0,0,12.47,9l6.24-6.24A3.23,3.23,0,1,1,23.27,7.3Z"/></g></svg>