<svg xmlns="http://www.w3.org/2000/svg" viewBox="0 0 22.78 23.22"><defs><style>.cls-1{fill:#fff;}</style></defs><title>icon</title><g id="Capa_2" data-name="Capa 2"><path class="cls-1" d="M11.39,23.22a11.13,11.13,0,0,1-7-2.43s-.24-.37.26-1.05.91-.43.91-.43a9.28,9.28,0,0,0,5.8,2,9.62,9.62,0,0,0,9.5-9.72,9.85,9.85,0,0,0-2.46-6.53,1,1,0,0,1,.43-1,1,1,0,0,1,1-.27,11.73,11.73,0,0,1,2.93,7.78A11.52,11.52,0,0,1,11.39,23.22Z"/><path class="cls-1" d="M2.59,19A11.78,11.78,0,0,1,0,11.61,11.52,11.52,0,0,1,11.39,0a11.29,11.29,0,0,1,7.08,2.51s.18.4-.33,1-.87.5-.87.5a9.24,9.24,0,0,0-5.88-2.1,9.62,9.62,0,0,0-9.5,9.72A9.91,9.91,0,0,0,4.06,17.8a.88.88,0,0,1-.44.94C2.91,19.25,2.59,19,2.59,19Z"/><ellipse class="cls-1" cx="10.88" cy="17.94" rx="1.2" ry="0.88"/><path class="cls-1" d="M11.91,15.88H9.84c0-2.3,1.5-3.9,2.71-5.18C13.27,9.94,14,9.15,14,8.6a3.07,3.07,0,0,0-3.14-3C10.09,5.6,9,5.77,9,7.22c0,0,0,.52-1,.47s-1-.47-1-.47a3.56,3.56,0,0,1,3.89-3.69,5.14,5.14,0,0,1,5.2,5.07c0,1.37-1,2.41-2,3.52S11.91,14.4,11.91,15.88Z"/></g></svg>